<svg width="1024" height="1024" viewBox="0 0 1024 1024" fill="none" xmlns="http://www.w3.org/2000/svg">
  <!-- Background - Indigo gradient matching Feelspace theme -->
  <defs>
    <linearGradient id="bgGradient" x1="0%" y1="0%" x2="100%" y2="100%">
      <stop offset="0%" style="stop-color:#6366F1;stop-opacity:1" />
      <stop offset="100%" style="stop-color:#4F46E5;stop-opacity:1" />
    </linearGradient>
    <linearGradient id="accentGradient" x1="0%" y1="0%" x2="100%" y2="100%">
      <stop offset="0%" style="stop-color:#A5B4FC;stop-opacity:1" />
      <stop offset="100%" style="stop-color:#818CF8;stop-opacity:1" />
    </linearGradient>
  </defs>
  
  <!-- Rounded square background -->
  <rect width="1024" height="1024" rx="232" fill="url(#bgGradient)"/>
  
  <!-- Unique abstract design: Flowing upward shapes representing emotional release -->
  <!-- Main flowing shape - unique to Feelspace -->
  <path d="M 200 750 Q 300 600 400 550 T 600 500 T 700 520 Q 750 560 800 650 Q 750 700 700 750 Q 600 780 512 780 Q 400 780 300 770 Z" 
        fill="url(#accentGradient)" opacity="0.9"/>
  
  <!-- Secondary flowing shape -->
  <path d="M 250 850 Q 350 700 450 650 T 650 600 T 750 620 Q 800 660 850 750 Q 800 800 750 850 Q 650 880 562 880 Q 450 880 350 870 Z" 
        fill="#EEF2FF" opacity="0.7"/>
  
  <!-- Abstract upward flow lines - unique pattern -->
  <path d="M 400 450 L 440 420 L 420 500 L 400 450" 
        fill="#FFFFFF" opacity="0.6"/>
  <path d="M 500 440 L 540 410 L 520 490 L 500 440" 
        fill="#FFFFFF" opacity="0.6"/>
  <path d="M 600 450 L 640 420 L 620 500 L 600 450" 
        fill="#FFFFFF" opacity="0.6"/>
  
  <!-- Center accent - subtle dot pattern -->
  <circle cx="512" cy="550" r="60" fill="#FFFFFF" opacity="0.3"/>
  <circle cx="512" cy="550" r="35" fill="#FFFFFF" opacity="0.5"/>
</svg>



